<svg xmlns="http://www.w3.org/2000/svg" xmlns:xlink="http://www.w3.org/1999/xlink" width="50" height="50" viewBox="0 0 50 50"><defs><clipPath id="a"><rect width="50" height="50" transform="translate(0.161)" fill="#fff" stroke="#707070" stroke-width="1"/></clipPath></defs><g transform="translate(-17.16 -49)"><g transform="translate(0)"><g transform="translate(16.999 49)" clip-path="url(#a)"><path d="M16.661,41.041c0,.2-.231.362-.522.362-.331.03-.562-.131-.562-.362,0-.2.231-.362.522-.362C16.4,40.65,16.661,40.81,16.661,41.041Zm-3.123-.452c-.07.2.131.432.432.492a.471.471,0,0,0,.623-.2c.06-.2-.131-.432-.432-.522a.515.515,0,0,0-.623.231Zm4.439-.171c-.291.07-.492.261-.462.492.03.2.291.331.593.261s.492-.261.462-.462S18.267,40.389,17.976,40.419ZM24.584,1.935A24.081,24.081,0,0,0,0,26.439,25.178,25.178,0,0,0,17.022,50.461c1.285.231,1.737-.562,1.737-1.215,0-.623-.03-4.057-.03-6.166,0,0-7.03,1.506-8.506-2.993,0,0-1.145-2.922-2.792-3.676,0,0-2.3-1.577.161-1.547a5.3,5.3,0,0,1,3.876,2.591c2.2,3.876,5.885,2.762,7.321,2.1A5.582,5.582,0,0,1,20.4,36.171c-5.614-.623-11.278-1.436-11.278-11.1a7.611,7.611,0,0,1,2.37-5.915,9.488,9.488,0,0,1,.261-6.819c2.1-.653,6.929,2.712,6.929,2.712a23.725,23.725,0,0,1,12.614,0s4.83-3.374,6.929-2.712a9.484,9.484,0,0,1,.261,6.819c1.607,1.778,2.591,3.163,2.591,5.915,0,9.691-5.915,10.464-11.529,11.1a5.939,5.939,0,0,1,1.707,4.66c0,3.384-.03,7.572-.03,8.4,0,.653.462,1.446,1.737,1.215a24.946,24.946,0,0,0,16.851-24C49.811,12.51,38.513,1.935,24.584,1.935ZM9.761,36.572c-.131.1-.1.331.07.522.161.161.392.231.522.1.131-.1.1-.331-.07-.522C10.123,36.512,9.892,36.442,9.761,36.572Zm-1.085-.813c-.07.131.03.291.231.392a.3.3,0,0,0,.432-.07c.07-.131-.03-.291-.231-.392C8.908,35.628,8.747,35.659,8.677,35.759Zm3.254,3.575c-.161.131-.1.432.131.623.231.231.522.261.653.1.131-.131.07-.432-.131-.623C12.362,39.2,12.061,39.173,11.931,39.334Zm-1.145-1.476c-.161.1-.161.362,0,.593s.432.331.562.231a.458.458,0,0,0,0-.623c-.141-.231-.4-.331-.562-.2Z" transform="translate(0.371 -1.313)" fill="#f1f8fb"/></g></g></g></svg>