<svg xmlns="http://www.w3.org/2000/svg" xmlns:xlink="http://www.w3.org/1999/xlink" width="60" height="60" viewBox="0 0 60 60"><defs><clipPath id="a"><rect width="60" height="60" fill="#fff" stroke="#707070" stroke-width="1"/></clipPath></defs><g clip-path="url(#a)"><path d="M30,1.935a30,30,0,1,0,30,30A30,30,0,0,0,30,1.935ZM28.628,31a1.935,1.935,0,0,1-1.66.94h-.038a1.936,1.936,0,0,0-1.368.567l-.685.685a.968.968,0,0,0,0,1.368l.685.685a1.936,1.936,0,0,1,.567,1.368v1.133a1.935,1.935,0,0,1-1.935,1.935h-.739a1.934,1.934,0,0,1-1.731-1.071l-2.736-5.471a.968.968,0,0,0-1.55-.252l-2.355,2.354a1.936,1.936,0,0,1-1.368.567H6.146A24.148,24.148,0,0,1,37.455,8.93l-6.068,4.661a.968.968,0,0,0,.1,1.671l1.31.654a1.935,1.935,0,0,1,1.069,1.731V27.1a.967.967,0,0,1-.968.968h-.37a.966.966,0,0,1-.865-.535.536.536,0,0,0-.939-.036l-2.1,3.5ZM49.355,44.326a1.936,1.936,0,0,1-.567,1.368L47.63,46.852a1.936,1.936,0,0,1-1.368.567H44.428a1.936,1.936,0,0,1-1.368-.567l-1.574-1.574a3.238,3.238,0,0,0-3.075-.852l-2.573.644a1.918,1.918,0,0,1-.469.058H34.118a1.936,1.936,0,0,1-1.368-.567L31.309,43.12a.969.969,0,0,1-.283-.685V41.2a.968.968,0,0,1,.608-.9l4.759-1.9a3.243,3.243,0,0,0,.676-.369l2.868-2.043a.965.965,0,0,1,.561-.179h1.463a.967.967,0,0,1,.894.6l.647,1.554a.484.484,0,0,0,.446.3h.46a.484.484,0,0,0,.465-.348l.508-1.75a.483.483,0,0,1,.465-.348h.733a.484.484,0,0,1,.484.484v1.564a.969.969,0,0,0,.283.685l1.441,1.441a1.936,1.936,0,0,1,.567,1.368v2.976Z" transform="translate(-0.937 -1.935)" fill="#f1f8fb"/></g></svg>