<svg id="svg" version="1.1" xmlns="http://www.w3.org/2000/svg" xmlns:xlink="http://www.w3.org/1999/xlink" width="400" height="400" viewBox="0, 0, 400,400"><g id="svgg"><path id="path0" d="M139.157 57.487 C 135.648 57.615,135.230 57.716,134.357 58.646 L 133.400 59.664 133.289 107.732 C 133.227 134.169,133.265 156.164,133.373 156.608 C 134.038 159.351,136.487 159.845,139.922 157.928 C 141.175 157.229,142.560 156.461,143.000 156.221 C 143.986 155.685,145.864 154.514,147.212 153.596 C 147.769 153.216,149.839 152.046,151.812 150.994 C 153.786 149.943,156.300 148.505,157.400 147.800 C 158.500 147.094,161.110 145.548,163.200 144.363 C 168.736 141.225,169.504 140.785,172.919 138.800 C 174.623 137.810,176.508 136.729,177.108 136.398 C 177.709 136.066,180.090 134.691,182.400 133.342 C 184.710 131.993,187.230 130.529,188.000 130.089 C 188.770 129.648,191.010 128.352,192.978 127.209 C 199.150 123.624,198.949 123.654,202.545 125.780 C 204.234 126.779,206.198 127.839,206.908 128.136 C 207.619 128.433,208.447 128.974,208.749 129.338 C 209.051 129.702,209.453 130.000,209.642 130.000 C 209.831 130.000,211.162 130.720,212.600 131.600 C 214.038 132.480,215.303 133.200,215.411 133.200 C 215.520 133.200,217.812 134.523,220.504 136.140 C 224.633 138.619,229.214 141.274,237.928 146.239 C 238.737 146.700,241.593 148.341,244.274 149.886 C 246.954 151.430,249.384 152.810,249.674 152.951 C 249.963 153.092,250.740 153.535,251.400 153.937 C 252.060 154.339,253.479 155.157,254.554 155.756 C 255.628 156.354,257.515 157.489,258.747 158.277 C 262.721 160.819,265.496 160.948,266.335 158.630 C 266.679 157.678,266.800 144.668,266.800 108.678 L 266.800 60.013 265.633 58.706 L 264.466 57.400 203.733 57.373 C 170.330 57.358,141.271 57.410,139.157 57.487 M243.800 100.995 C 243.800 124.830,244.146 123.089,239.928 120.489 C 238.538 119.632,235.420 117.806,233.000 116.431 C 230.580 115.055,228.330 113.762,228.000 113.557 C 227.670 113.351,226.768 112.872,225.995 112.491 C 225.222 112.111,224.024 111.395,223.333 110.900 C 222.642 110.405,221.980 110.000,221.862 110.000 C 221.745 110.000,220.152 109.100,218.324 108.001 C 216.496 106.901,214.834 106.001,214.631 106.001 C 214.429 106.000,213.979 105.746,213.631 105.436 C 213.284 105.126,211.920 104.283,210.600 103.563 C 209.280 102.844,206.585 101.297,204.612 100.127 C 199.351 97.009,197.792 97.208,190.036 101.991 C 188.366 103.021,185.830 104.493,184.400 105.262 C 182.970 106.032,179.910 107.819,177.600 109.234 C 175.290 110.649,172.770 112.119,172.000 112.501 C 171.230 112.883,170.330 113.368,170.000 113.578 C 168.003 114.854,162.467 118.000,162.219 118.000 C 162.057 118.000,161.358 118.405,160.667 118.900 C 157.733 121.002,156.615 121.256,156.252 119.900 C 155.920 118.659,155.935 80.598,156.268 80.265 C 156.416 80.117,176.171 80.042,200.168 80.098 L 243.800 80.200 243.800 100.995 M198.450 148.681 C 197.928 148.784,196.648 149.393,195.606 150.034 C 194.564 150.675,193.600 151.200,193.464 151.200 C 193.327 151.200,192.231 151.830,191.027 152.600 C 189.823 153.370,188.757 154.000,188.657 154.000 C 188.557 154.000,186.946 154.900,185.077 156.000 C 183.208 157.100,181.503 158.000,181.288 158.000 C 181.074 158.000,180.688 158.252,180.432 158.561 C 180.176 158.870,179.029 159.589,177.883 160.159 C 176.738 160.730,175.446 161.422,175.014 161.698 C 172.629 163.221,160.301 170.465,158.322 171.506 C 157.375 172.005,155.523 173.085,154.207 173.906 C 152.891 174.728,151.091 175.773,150.207 176.229 C 148.691 177.011,144.865 179.209,142.200 180.828 C 141.540 181.229,140.550 181.803,140.000 182.104 C 139.077 182.609,136.005 184.320,132.926 186.044 C 132.225 186.436,130.924 187.217,130.034 187.779 C 129.144 188.340,128.329 188.800,128.224 188.800 C 128.118 188.800,126.121 189.970,123.785 191.400 C 121.449 192.830,119.445 194.000,119.332 194.000 C 118.303 194.000,113.865 197.625,113.192 199.016 C 112.297 200.865,111.916 294.117,112.790 297.167 C 113.347 299.106,114.396 300.068,118.965 302.824 C 121.184 304.163,123.270 305.425,123.600 305.628 C 123.930 305.830,125.494 306.714,127.076 307.592 C 128.658 308.469,130.548 309.520,131.276 309.928 C 132.004 310.336,133.680 311.268,135.000 311.999 C 136.320 312.731,139.897 314.830,142.949 316.665 C 146.000 318.499,148.587 320.000,148.696 320.000 C 148.806 320.000,150.989 321.234,153.548 322.742 C 156.107 324.250,159.100 325.979,160.200 326.585 C 161.300 327.190,163.235 328.296,164.500 329.043 C 165.765 329.789,167.835 331.010,169.100 331.757 C 170.365 332.503,172.030 333.465,172.800 333.895 C 174.231 334.694,178.027 336.896,179.936 338.034 C 180.521 338.383,181.990 339.219,183.200 339.893 C 184.410 340.566,187.020 342.059,189.000 343.210 C 190.980 344.361,193.410 345.754,194.400 346.305 C 195.390 346.856,196.453 347.508,196.761 347.754 C 198.771 349.352,203.003 348.138,209.600 344.070 C 210.370 343.595,211.270 343.085,211.600 342.936 C 211.930 342.786,213.132 342.076,214.270 341.356 C 215.409 340.637,217.389 339.483,218.670 338.791 C 219.952 338.100,223.250 336.203,226.000 334.575 C 228.750 332.947,232.080 331.052,233.400 330.363 C 234.720 329.674,236.070 328.879,236.400 328.596 C 236.730 328.314,238.170 327.455,239.600 326.689 C 241.030 325.923,243.820 324.345,245.800 323.182 C 247.780 322.020,250.387 320.534,251.593 319.881 C 252.799 319.228,254.508 318.237,255.391 317.679 C 256.764 316.813,260.005 314.904,265.012 312.012 C 265.679 311.627,267.659 310.540,269.412 309.596 C 271.166 308.651,273.230 307.488,274.000 307.010 C 274.770 306.532,275.670 306.014,276.000 305.858 C 276.330 305.702,277.590 304.956,278.800 304.200 C 280.010 303.444,281.450 302.599,282.000 302.321 C 282.550 302.043,283.090 301.709,283.200 301.578 C 283.310 301.447,283.989 300.997,284.708 300.579 C 287.504 298.952,287.600 298.327,287.600 281.703 L 287.600 266.858 286.509 266.000 C 285.743 265.397,285.117 265.217,284.409 265.395 C 283.854 265.534,282.860 265.741,282.200 265.854 C 281.540 265.967,280.730 266.167,280.400 266.299 C 279.098 266.818,274.549 267.854,269.419 268.798 C 265.972 269.433,266.133 269.009,265.917 277.987 C 265.702 286.949,265.769 286.739,262.614 288.261 C 261.506 288.795,259.722 289.773,258.649 290.435 C 257.576 291.096,255.596 292.239,254.249 292.976 C 250.179 295.201,240.349 300.947,237.919 302.522 C 236.665 303.335,235.522 304.000,235.380 304.000 C 235.238 304.000,232.521 305.530,229.343 307.400 C 226.164 309.270,223.477 310.800,223.372 310.800 C 223.266 310.800,222.060 311.493,220.690 312.340 C 219.321 313.187,217.030 314.538,215.600 315.342 C 214.170 316.145,212.280 317.223,211.400 317.736 C 210.520 318.249,208.900 319.167,207.800 319.776 C 206.700 320.385,205.604 321.043,205.364 321.238 C 204.646 321.821,200.444 324.000,200.038 324.000 C 199.701 324.000,192.069 319.824,189.000 317.960 C 188.340 317.559,186.270 316.384,184.400 315.349 C 182.530 314.313,180.550 313.160,180.000 312.787 C 179.450 312.413,177.740 311.428,176.200 310.597 C 174.660 309.766,173.130 308.870,172.800 308.604 C 172.470 308.339,171.930 308.003,171.600 307.857 C 171.270 307.712,170.370 307.205,169.600 306.732 C 168.830 306.258,167.030 305.253,165.600 304.499 C 164.170 303.745,162.756 302.927,162.457 302.680 C 162.159 302.433,161.586 302.044,161.184 301.816 C 158.135 300.081,151.777 296.412,147.600 293.978 C 139.740 289.397,139.517 289.271,137.317 288.167 C 136.171 287.592,135.043 286.893,134.810 286.612 C 134.520 286.262,134.385 274.367,134.381 248.596 C 134.374 205.926,133.932 210.515,138.263 208.338 C 139.673 207.630,141.022 206.814,141.262 206.525 C 141.502 206.236,141.839 206.000,142.012 206.000 C 142.184 206.000,144.100 204.947,146.268 203.659 C 148.436 202.372,151.468 200.637,153.005 199.805 C 155.794 198.295,161.300 195.083,164.055 193.359 C 164.855 192.858,166.115 192.174,166.855 191.838 C 167.595 191.502,168.920 190.783,169.800 190.240 C 170.680 189.697,172.288 188.772,173.373 188.184 C 174.458 187.597,175.808 186.796,176.373 186.405 C 178.048 185.247,183.278 182.221,184.984 181.423 C 185.854 181.016,187.564 180.043,188.784 179.261 C 190.003 178.478,192.170 177.185,193.600 176.386 C 195.030 175.588,196.880 174.545,197.712 174.067 C 199.606 172.981,200.389 172.980,202.288 174.062 C 203.120 174.536,204.709 175.407,205.820 175.998 C 206.931 176.590,208.821 177.699,210.020 178.463 C 211.219 179.227,213.398 180.498,214.863 181.286 C 218.311 183.143,223.234 186.014,224.000 186.616 C 224.330 186.875,225.860 187.768,227.400 188.601 C 228.940 189.434,230.827 190.540,231.593 191.058 C 232.359 191.576,233.142 192.000,233.333 192.000 C 233.649 192.000,235.401 193.001,240.400 196.035 C 241.390 196.636,242.830 197.474,243.600 197.898 C 245.577 198.987,249.567 201.200,251.074 202.044 C 251.775 202.436,253.076 203.217,253.966 203.779 C 254.856 204.340,255.686 204.800,255.811 204.800 C 255.936 204.800,257.065 205.467,258.319 206.282 C 259.574 207.097,261.410 208.151,262.400 208.625 C 265.899 210.300,265.794 209.902,265.845 221.649 C 265.895 233.245,265.978 233.600,268.621 233.600 C 270.413 233.600,278.093 229.619,282.906 226.196 C 287.786 222.725,287.595 223.367,287.596 210.400 C 287.597 198.089,287.457 197.675,282.355 194.965 C 281.170 194.335,279.643 193.410,278.962 192.910 C 278.281 192.409,277.561 191.999,277.362 191.999 C 277.163 191.998,275.920 191.279,274.600 190.400 C 273.280 189.521,271.975 188.802,271.700 188.801 C 271.425 188.801,271.200 188.641,271.200 188.447 C 271.200 188.252,270.885 187.992,270.500 187.869 C 269.782 187.638,267.094 186.141,263.200 183.803 C 261.990 183.076,260.010 181.944,258.800 181.288 C 257.590 180.631,255.430 179.416,254.000 178.588 C 252.570 177.759,250.410 176.544,249.200 175.888 C 247.990 175.232,246.910 174.584,246.800 174.448 C 246.690 174.311,246.240 174.004,245.800 173.764 C 241.382 171.357,233.074 166.538,225.017 161.710 C 224.568 161.441,223.570 160.898,222.800 160.504 C 222.030 160.109,220.950 159.506,220.400 159.163 C 218.272 157.836,214.512 155.647,212.600 154.621 C 211.500 154.030,209.880 153.106,209.000 152.567 C 208.120 152.027,207.004 151.417,206.519 151.210 C 206.035 151.004,204.949 150.399,204.106 149.867 C 202.516 148.863,200.093 148.355,198.450 148.681 M193.800 200.238 C 191.600 201.462,189.080 202.951,188.200 203.547 C 187.320 204.143,185.889 204.984,185.019 205.415 C 184.150 205.847,182.021 207.055,180.290 208.100 C 178.558 209.145,177.056 210.000,176.951 210.000 C 176.847 210.000,175.818 210.603,174.666 211.341 C 173.513 212.078,171.496 213.278,170.185 214.006 C 159.456 219.965,157.971 220.892,156.902 222.293 L 155.800 223.737 155.679 246.968 C 155.613 259.746,155.668 270.796,155.802 271.524 C 156.037 272.806,158.509 276.000,159.266 276.000 C 159.471 276.000,160.623 276.630,161.827 277.400 C 163.031 278.170,164.133 278.800,164.276 278.800 C 164.420 278.800,164.821 279.043,165.169 279.341 C 165.516 279.639,167.240 280.651,169.000 281.591 C 170.760 282.531,172.650 283.612,173.200 283.993 C 173.750 284.375,175.280 285.282,176.600 286.009 C 177.920 286.736,179.630 287.680,180.400 288.106 C 181.170 288.532,182.084 289.133,182.431 289.441 C 182.779 289.748,183.239 290.000,183.455 290.000 C 183.671 290.000,184.916 290.647,186.224 291.437 C 189.067 293.157,191.561 294.589,194.000 295.903 C 194.990 296.436,196.134 297.171,196.542 297.536 C 198.564 299.345,202.820 298.312,208.084 294.736 C 208.680 294.331,209.310 293.996,209.484 293.991 C 209.658 293.986,211.237 293.086,212.994 291.991 C 214.750 290.896,216.311 290.000,216.462 290.000 C 216.613 290.000,218.188 289.100,219.961 288.000 C 221.735 286.900,223.273 286.000,223.379 286.000 C 223.563 286.000,228.046 283.401,236.400 278.451 C 238.490 277.213,240.480 276.084,240.822 275.942 C 242.109 275.407,243.883 272.895,244.149 271.227 C 244.595 268.438,243.892 267.544,240.600 266.720 C 239.060 266.334,236.990 265.765,236.000 265.456 C 235.010 265.147,233.390 264.669,232.400 264.395 C 231.410 264.121,230.033 263.650,229.340 263.348 C 228.646 263.047,227.827 262.800,227.520 262.800 C 227.212 262.800,226.743 262.583,226.478 262.318 C 225.510 261.350,220.787 261.728,218.908 262.924 C 217.977 263.516,217.146 264.000,217.060 264.000 C 216.974 264.000,214.045 265.651,210.552 267.669 C 204.045 271.428,200.679 273.200,200.046 273.200 C 199.256 273.200,191.869 269.365,190.400 268.192 C 190.070 267.929,188.630 267.076,187.200 266.296 C 183.983 264.543,180.096 262.251,178.900 261.402 L 178.000 260.763 178.000 247.986 L 178.000 235.210 179.630 234.181 C 180.527 233.615,181.562 233.046,181.930 232.917 C 182.299 232.787,183.140 232.300,183.800 231.833 C 184.460 231.366,185.540 230.723,186.200 230.404 C 186.860 230.085,188.300 229.270,189.400 228.592 C 191.783 227.124,196.403 224.524,198.510 223.465 L 200.020 222.707 202.310 223.880 C 203.569 224.526,207.030 226.466,210.000 228.191 C 222.752 235.600,223.589 236.000,226.336 236.000 C 227.364 236.000,228.815 236.175,229.559 236.388 C 231.368 236.907,240.705 237.382,242.496 237.046 C 244.317 236.704,244.485 236.063,244.422 229.692 C 244.351 222.500,244.065 222.015,237.800 218.471 C 235.600 217.226,233.440 215.994,233.000 215.733 C 232.560 215.472,231.570 214.940,230.800 214.552 C 229.652 213.972,226.817 212.302,222.400 209.603 C 221.043 208.774,217.283 206.612,215.600 205.695 C 214.610 205.155,213.170 204.308,212.400 203.812 C 202.105 197.185,200.010 196.783,193.800 200.238 " stroke="none" fill="#57bbea" fill-rule="evenodd"></path></g></svg>